<svg width="161" height="48" viewBox="0 0 161 48" fill="none" xmlns="http://www.w3.org/2000/svg">
<path d="M67.4414 21.9658H73.3876C78.3748 21.9658 81.7555 18.681 81.7555 13.9816C81.7555 9.28216 78.3748 5.97337 73.3876 5.97337H67.4414V21.9658ZM70.2467 19.4962V8.44297H73.3876C76.9602 8.44297 78.8783 10.8886 78.8783 13.9816C78.8783 17.0027 76.8643 19.4962 73.3876 19.4962H70.2467Z" fill="#1A1B1F"/>
<path d="M83.6727 16.1635C83.6727 19.8319 86.2622 22.2536 89.7388 22.2536C91.585 22.2536 93.2874 21.6781 94.4382 20.5752L93.2874 18.9208C92.4722 19.736 91.1295 20.1916 90.0026 20.1916C87.8207 20.1916 86.502 18.753 86.3101 17.0027H95.2535V16.4032C95.2535 12.7588 93.0236 10.0974 89.547 10.0974C86.1183 10.0974 83.6727 12.8067 83.6727 16.1635ZM89.547 12.1594C91.8248 12.1594 92.7599 13.8617 92.8078 15.2284H86.2862C86.406 13.8138 87.3891 12.1594 89.547 12.1594Z" fill="#1A1B1F"/>
<path d="M96.7314 20.4553C97.9302 21.6302 99.7285 22.2536 101.695 22.2536C104.812 22.2536 106.514 20.6951 106.514 18.657C106.514 15.9237 104.044 15.3483 102.03 14.9167C100.664 14.605 99.5127 14.2933 99.5127 13.4061C99.5127 12.5909 100.352 12.1114 101.671 12.1114C103.109 12.1114 104.404 12.7108 105.099 13.5021L106.154 11.7278C105.099 10.7927 103.613 10.0974 101.647 10.0974C98.7215 10.0974 97.091 11.7278 97.091 13.6219C97.091 16.2114 99.4647 16.7389 101.455 17.1705C102.869 17.4822 104.092 17.8418 104.092 18.8489C104.092 19.712 103.325 20.2635 101.814 20.2635C100.304 20.2635 98.6975 19.4723 97.8823 18.6331L96.7314 20.4553Z" fill="#1A1B1F"/>
<path d="M110.295 8.46695C111.158 8.46695 111.853 7.77162 111.853 6.90846C111.853 6.0453 111.158 5.34998 110.295 5.34998C109.455 5.34998 108.736 6.0453 108.736 6.90846C108.736 7.77162 109.455 8.46695 110.295 8.46695ZM109.048 21.9658H111.565V10.3851H109.048V21.9658Z" fill="#1A1B1F"/>
<path d="M114.687 24.9389C116.102 26.2337 117.565 26.6653 119.531 26.6653C122.384 26.6653 125.477 25.5384 125.477 21.3664V10.3851H122.959V11.9915C122.024 10.7687 120.705 10.0974 119.243 10.0974C116.27 10.0974 114.112 12.3032 114.112 16.0436C114.112 19.8559 116.294 21.9898 119.243 21.9898C120.753 21.9898 122.072 21.2226 122.959 20.0717V21.4623C122.959 23.836 121.185 24.6033 119.531 24.6033C117.996 24.6033 116.797 24.1957 115.862 23.1167L114.687 24.9389ZM122.959 18.2015C122.408 19.0647 121.161 19.76 119.986 19.76C117.996 19.76 116.725 18.2734 116.725 16.0436C116.725 13.8138 117.996 12.3272 119.986 12.3272C121.161 12.3272 122.408 13.0225 122.959 13.8857V18.2015Z" fill="#1A1B1F"/>
<path d="M136.556 21.9658H139.074V13.8138C139.074 11.4401 137.827 10.0974 135.333 10.0974C133.511 10.0974 132.024 11.0564 131.257 11.9675V10.3851H128.74V21.9658H131.257V13.8857C131.833 13.0945 132.935 12.3272 134.23 12.3272C135.645 12.3272 136.556 12.9266 136.556 14.7249V21.9658Z" fill="#1A1B1F"/>
<path d="M81.252 42.9455H84.0573V26.953H80.1011L75.7373 37.7185L71.3976 26.953H67.4414V42.9455H70.2467V30.8372L75.1379 42.9455H76.3368L81.252 30.8372V42.9455Z" fill="#1A1B1F"/>
<path d="M94.4622 42.9455H96.9798V35.2729C96.9798 32.1559 94.726 31.077 92.1605 31.077C90.3143 31.077 88.6359 31.6764 87.2932 32.9472L88.3242 34.6975C89.3312 33.7144 90.4581 33.2349 91.7529 33.2349C93.3593 33.2349 94.4622 34.0501 94.4622 35.3928V37.1191C93.623 36.1361 92.2803 35.6326 90.7219 35.6326C88.8277 35.6326 86.6938 36.7355 86.6938 39.3969C86.6938 41.9624 88.8277 43.2332 90.7219 43.2332C92.2564 43.2332 93.5991 42.6817 94.4622 41.6987V42.9455ZM94.4622 40.308C93.8868 41.0993 92.8078 41.5069 91.7049 41.5069C90.2903 41.5069 89.2353 40.6916 89.2353 39.4449C89.2353 38.1741 90.2903 37.3589 91.7049 37.3589C92.8078 37.3589 93.8868 37.7665 94.4622 38.5577V40.308Z" fill="#1A1B1F"/>
<path d="M108.06 42.9455H110.578V34.7934C110.578 32.4197 109.331 31.077 106.837 31.077C105.015 31.077 103.529 32.0361 102.761 32.9472V31.3647H100.244V42.9455H102.761V34.8653C103.337 34.0741 104.44 33.3068 105.734 33.3068C107.149 33.3068 108.06 33.9062 108.06 35.7045V42.9455Z" fill="#1A1B1F"/>
<path d="M120.921 42.9455H123.438V35.2729C123.438 32.1559 121.185 31.077 118.619 31.077C116.773 31.077 115.095 31.6764 113.752 32.9472L114.783 34.6975C115.79 33.7144 116.917 33.2349 118.212 33.2349C119.818 33.2349 120.921 34.0501 120.921 35.3928V37.1191C120.082 36.1361 118.739 35.6326 117.181 35.6326C115.286 35.6326 113.152 36.7355 113.152 39.3969C113.152 41.9624 115.286 43.2332 117.181 43.2332C118.715 43.2332 120.058 42.6817 120.921 41.6987V42.9455ZM120.921 40.308C120.345 41.0993 119.267 41.5069 118.164 41.5069C116.749 41.5069 115.694 40.6916 115.694 39.4449C115.694 38.1741 116.749 37.3589 118.164 37.3589C119.267 37.3589 120.345 37.7665 120.921 38.5577V40.308Z" fill="#1A1B1F"/>
<path d="M126.559 45.9186C127.973 47.2133 129.436 47.6449 131.402 47.6449C134.255 47.6449 137.348 46.518 137.348 42.346V31.3647H134.831V32.9711C133.895 31.7483 132.577 31.077 131.114 31.077C128.141 31.077 125.983 33.2828 125.983 37.0232C125.983 40.8355 128.165 42.9694 131.114 42.9694C132.625 42.9694 133.943 42.2022 134.831 41.0513V42.4419C134.831 44.8156 133.056 45.5829 131.402 45.5829C129.867 45.5829 128.669 45.1753 127.733 44.0963L126.559 45.9186ZM134.831 39.1811C134.279 40.0443 133.032 40.7396 131.857 40.7396C129.867 40.7396 128.597 39.253 128.597 37.0232C128.597 34.7934 129.867 33.3068 131.857 33.3068C133.032 33.3068 134.279 34.0021 134.831 34.8653V39.1811Z" fill="#1A1B1F"/>
<path d="M139.892 37.1431C139.892 40.8115 142.481 43.2332 145.958 43.2332C147.804 43.2332 149.506 42.6577 150.657 41.5548L149.506 39.9004C148.691 40.7156 147.348 41.1712 146.221 41.1712C144.04 41.1712 142.721 39.7326 142.529 37.9823H151.472V37.3829C151.472 33.7384 149.242 31.077 145.766 31.077C142.337 31.077 139.892 33.7864 139.892 37.1431ZM145.766 33.139C148.044 33.139 148.979 34.8413 149.027 36.208H142.505C142.625 34.7934 143.608 33.139 145.766 33.139Z" fill="#1A1B1F"/>
<path d="M153.957 42.9455H156.475V35.0571C156.978 34.2419 158.393 33.5226 159.448 33.5226C159.76 33.5226 160.023 33.5466 160.239 33.5945V31.101C158.729 31.101 157.338 31.9641 156.475 33.0671V31.3647H153.957V42.9455Z" fill="#1A1B1F"/>
<rect x="0.382812" width="52.4491" height="48" rx="7.93067" fill="#1A1B1F"/>
<path d="M29.6465 33.2146L25.8901 27.1346C25.3867 30.5812 23.3342 32.7886 19.9263 33.7567C18.5709 34.144 16.9832 34.3376 15.2018 34.3376H14.8533C14.8533 38.8685 17.99 39.9916 18.2999 40.069C23.7215 39.7205 27.1681 36.8935 29.6465 33.2146Z" fill="white"/>
<path d="M14.8533 34.3376C14.8533 31.7042 14.8533 23.2622 14.8533 23.2622V14.0067H14.892L14.8533 13.968C8.85076 13.968 8.30859 17.7244 8.30859 17.7244V36.003C8.30859 38.2491 10.1674 40.0692 12.4135 40.0692H18.3386C18.2999 40.0692 14.8533 39.1009 14.8533 34.3376Z" fill="white"/>
<path d="M43.9755 7.92651C43.627 7.92651 43.4721 7.92651 43.1235 7.92651C42.4265 7.92651 42.2328 8.3525 42.2328 8.3525L32.4739 23.6492L27.2072 14.1226C27.2072 14.1226 25.7744 11.4506 22.2116 9.63045C18.9199 8.00397 11.4845 8.23632 11.4845 8.23632H10.3615C9.23843 8.23632 8.30901 9.16574 8.30901 10.3275V17.7629C8.30901 17.7629 8.85117 14.0452 14.8537 14.0452C15.1248 14.0452 17.6419 14.0839 19.2684 15.0133C20.1204 15.5168 20.8562 16.1751 21.4371 16.9496L32.0479 34.1826H32.6676L38.825 25.8566V40.069H44.9049V8.81721C44.9049 8.31377 44.4789 7.92651 43.9755 7.92651Z" fill="white"/>
</svg>
